<svg width="353" height="64" viewBox="0 0 353 64" fill="none" xmlns="http://www.w3.org/2000/svg">
<rect width="353" height="64" rx="12" fill="#E2786F"/>
<path d="M150.569 27.1445C150.569 30.2432 151.979 33.3604 154.837 34.5664L153.445 36.459C151.516 35.5869 150.18 33.9077 149.419 31.8203C148.649 34.0933 147.267 35.9302 145.207 36.8672L143.778 34.9004C146.729 33.6572 148.157 30.4287 148.176 27.1445V24.6211H150.569V27.1445ZM158.14 23.3223V40.2441H155.746V23.3223H158.14ZM170.015 24.3057V26.1982H166.656C166.675 28.1743 167.844 30.1968 170.59 31.0781L169.384 32.915C167.51 32.312 166.22 31.106 165.487 29.5938C164.736 31.2451 163.391 32.5532 161.424 33.1934L160.162 31.375C162.955 30.4751 164.226 28.3135 164.263 26.1982H160.812V24.3057H170.015ZM173.818 23.3223V27.4229H176.101V29.3896H173.818V33.5088H171.443V23.3223H173.818ZM173.818 34.2324V40.207H171.443V36.1064H162.444V34.2324H173.818ZM190.165 23.3223V29.9277H192.651V31.876H190.165V40.207H187.827V23.3223H190.165ZM186.677 25.8457V27.7383H176.75V25.8457H180.572V23.582H182.947V25.8457H186.677ZM181.76 28.6846C184.228 28.6846 186.064 30.3545 186.064 32.7109C186.064 35.0674 184.228 36.7373 181.76 36.7373C179.273 36.7373 177.437 35.0674 177.437 32.7109C177.437 30.3545 179.273 28.6846 181.76 28.6846ZM181.76 30.5957C180.572 30.6143 179.7 31.4121 179.7 32.7109C179.7 34.0283 180.572 34.8076 181.76 34.7891C182.947 34.8076 183.801 34.0283 183.801 32.7109C183.801 31.4121 182.947 30.6143 181.76 30.5957ZM207.458 23.3223V40.207H205.064V23.3223H207.458ZM202.393 25.085C202.393 30.2061 200.593 34.4551 194.562 37.3125L193.319 35.4199C197.68 33.3604 199.6 30.6885 199.98 26.9404H194.229V25.085H202.393Z" fill="white"/>
</svg>
